<?xml version="1.0" standalone="no"?>
<!DOCTYPE svg PUBLIC "-//W3C//DTD SVG 20010904//EN"
 "http://www.w3.org/TR/2001/REC-SVG-20010904/DTD/svg10.dtd">
<svg version="1.0" xmlns="http://www.w3.org/2000/svg"
 width="414.000000pt" height="896.000000pt" viewBox="0 0 414.000000 896.000000"
 preserveAspectRatio="xMidYMid meet">

<g transform="translate(0.000000,896.000000) scale(0.100000,-0.100000)"
fill="#000000" stroke="none">
<path d="M0 8556 l0 -404 96 -31 c54 -18 218 -93 373 -171 318 -160 428 -205
559 -227 78 -13 106 -14 165 -4 153 25 277 116 340 248 31 67 32 71 32 208 -1
83 -8 185 -18 250 -24 150 -23 276 4 384 12 47 28 98 35 113 8 15 14 29 14 33
0 3 -360 5 -800 5 l-800 0 0 -404z"/>
<path d="M3929 1391 c-31 -10 -110 -48 -175 -84 -66 -36 -155 -78 -199 -94
-79 -28 -82 -28 -298 -25 -315 3 -414 -22 -516 -134 -81 -88 -85 -132 -27
-323 58 -189 49 -222 -81 -309 -106 -71 -158 -126 -174 -184 -16 -54 -16 -174
-1 -210 l12 -28 835 0 835 0 0 699 c0 628 -2 699 -16 705 -31 12 -140 5 -195
-13z"/>
</g>
</svg>
